999
dxflib 2.2.0.0
  0
SECTION
  2
HEADER
  9
$ACADVER
  1
AC1015
  9
$HANDSEED
  5
FFFF
  9
$DIMASZ
 40
2.5
  9
$PLIMMIN
 10
0.0
 20
0.0
  9
$DIMEXE
 40
1.25
  9
$DIMGAP
 40
0.625
  9
$PLIMMAX
 10
210.0
 20
297.0
  9
$INSUNITS
 70
4
  9
$DIMSTYLE
  2
Standard
  9
$DIMEXO
 40
0.625
  9
$DIMTXT
 40
2.5
  9
$CLAYER
  8
0
  0
ENDSEC
  0
SECTION
  2
TABLES
  0
TABLE
  2
VPORT
  5
8
100
AcDbSymbolTable
 70
1
  0
VPORT
  5
30
100
AcDbSymbolTableRecord
100
AcDbViewportTableRecord
  2
*Active
 70
0
 10
0.0
 20
0.0
 11
1.0
 21
1.0
 12
286.3055555555554861
 22
148.5
 13
0.0
 23
0.0
 14
10.0
 24
10.0
 15
10.0
 25
10.0
 16
0.0
 26
0.0
 36
1.0
 17
0.0
 27
0.0
 37
0.0
 40
297.0
 41
1.92798353909465
 42
50.0
 43
0.0
 44
0.0
 50
0.0
 51
0.0
 71
0
 72
100
 73
1
 74
3
 75
1
 76
1
 77
0
 78
0
281
0
 65
1
110
0.0
120
0.0
130
0.0
111
1.0
121
0.0
131
0.0
112
0.0
122
1.0
132
0.0
 79
0
146
0.0
  0
ENDTAB
  0
TABLE
  2
LTYPE
  5
5
100
AcDbSymbolTable
 70
21
  0
LTYPE
  5
14
100
AcDbSymbolTableRecord
100
AcDbLinetypeTableRecord
  2
ByBlock
 70
0
  3

 72
65
 73
0
 40
0.0
  0
LTYPE
  5
15
100
AcDbSymbolTableRecord
100
AcDbLinetypeTableRecord
  2
ByLayer
 70
0
  3

 72
65
 73
0
 40
0.0
  0
LTYPE
  5
16
100
AcDbSymbolTableRecord
100
AcDbLinetypeTableRecord
  2
CONTINUOUS
 70
0
  3
Solid line
 72
65
 73
0
 40
0.0
  0
LTYPE
  5
31
100
AcDbSymbolTableRecord
100
AcDbLinetypeTableRecord
  2
DOT
 70
0
  3
Dot . . . . . . . . . . . . . . . . . . . . . .
 72
65
 73
2
 40
6.3499999999999996
 49
0.0
 74
0
 49
-6.3499999999999996
 74
0
  0
LTYPE
  5
32
100
AcDbSymbolTableRecord
100
AcDbLinetypeTableRecord
  2
DOT2
 70
0
  3
Dot (.5x) .....................................
 72
65
 73
2
 40
3.1749999999999998
 49
0.0
 74
0
 49
-3.1749999999999998
 74
0
  0
LTYPE
  5
33
100
AcDbSymbolTableRecord
100
AcDbLinetypeTableRecord
  2
DOTX2
 70
0
  3
Dot (2x) .  .  .  .  .  .  .  .  .  .  .  .  .
 72
65
 73
2
 40
12.6999999999999993
 49
0.0
 74
0
 49
-12.6999999999999993
 74
0
  0
LTYPE
  5
34
100
AcDbSymbolTableRecord
100
AcDbLinetypeTableRecord
  2
DASHED
 70
0
  3
Dashed __ __ __ __ __ __ __ __ __ __ __ __ __ _
 72
65
 73
2
 40
19.0500000000000007
 49
12.6999999999999993
 74
0
 49
-6.3499999999999996
 74
0
  0
LTYPE
  5
35
100
AcDbSymbolTableRecord
100
AcDbLinetypeTableRecord
  2
DASHED2
 70
0
  3
Dashed (.5x) _ _ _ _ _ _ _ _ _ _ _ _ _ _ _ _ _
 72
65
 73
2
 40
9.5250000000000004
 49
6.3499999999999996
 74
0
 49
-3.1749999999999998
 74
0
  0
LTYPE
  5
36
100
AcDbSymbolTableRecord
100
AcDbLinetypeTableRecord
  2
DASHEDX2
 70
0
  3
Dashed (2x) ____  ____  ____  ____  ____  ___
 72
65
 73
2
 40
38.1000000000000014
 49
25.3999999999999986
 74
0
 49
-12.6999999999999993
 74
0
  0
LTYPE
  5
37
100
AcDbSymbolTableRecord
100
AcDbLinetypeTableRecord
  2
DASHDOT
 70
0
  3
Dash dot __ . __ . __ . __ . __ . __ . __ . __
 72
65
 73
4
 40
25.3999999999999986
 49
12.6999999999999993
 74
0
 49
-6.3499999999999996
 74
0
 49
0.0
 74
0
 49
-6.3499999999999996
 74
0
  0
LTYPE
  5
38
100
AcDbSymbolTableRecord
100
AcDbLinetypeTableRecord
  2
DASHDOT2
 70
0
  3
Dash dot (.5x) _._._._._._._._._._._._._._._.
 72
65
 73
4
 40
12.6999999999999993
 49
6.3499999999999996
 74
0
 49
-3.1749999999999998
 74
0
 49
0.0
 74
0
 49
-3.1749999999999998
 74
0
  0
LTYPE
  5
39
100
AcDbSymbolTableRecord
100
AcDbLinetypeTableRecord
  2
DASHDOTX2
 70
0
  3
Dash dot (2x) ____  .  ____  .  ____  .  ___
 72
65
 73
4
 40
50.7999999999999972
 49
25.3999999999999986
 74
0
 49
-12.6999999999999993
 74
0
 49
0.0
 74
0
 49
-12.6999999999999993
 74
0
  0
LTYPE
  5
3A
100
AcDbSymbolTableRecord
100
AcDbLinetypeTableRecord
  2
DIVIDE
 70
0
  3
Divide ____ . . ____ . . ____ . . ____ . . ____
 72
65
 73
6
 40
31.75
 49
12.6999999999999993
 74
0
 49
-6.3499999999999996
 74
0
 49
0.0
 74
0
 49
-6.3499999999999996
 74
0
 49
0.0
 74
0
 49
-6.3499999999999996
 74
0
  0
LTYPE
  5
3B
100
AcDbSymbolTableRecord
100
AcDbLinetypeTableRecord
  2
DIVIDE2
 70
0
  3
Divide (.5x) __..__..__..__..__..__..__..__.._
 72
65
 73
6
 40
15.875
 49
6.3499999999999996
 74
0
 49
-3.1749999999999998
 74
0
 49
0.0
 74
0
 49
-3.1749999999999998
 74
0
 49
0.0
 74
0
 49
-3.1749999999999998
 74
0
  0
LTYPE
  5
3C
100
AcDbSymbolTableRecord
100
AcDbLinetypeTableRecord
  2
DIVIDEX2
 70
0
  3
Divide (2x) ________  .  .  ________  .  .  _
 72
65
 73
6
 40
63.5
 49
25.3999999999999986
 74
0
 49
-12.6999999999999993
 74
0
 49
0.0
 74
0
 49
-12.6999999999999993
 74
0
 49
0.0
 74
0
 49
-12.6999999999999993
 74
0
  0
LTYPE
  5
3D
100
AcDbSymbolTableRecord
100
AcDbLinetypeTableRecord
  2
CENTER
 70
0
  3
Center ____ _ ____ _ ____ _ ____ _ ____ _ ____
 72
65
 73
4
 40
50.7999999999999972
 49
31.75
 74
0
 49
-6.3499999999999996
 74
0
 49
6.3499999999999996
 74
0
 49
-6.3499999999999996
 74
0
  0
LTYPE
  5
3E
100
AcDbSymbolTableRecord
100
AcDbLinetypeTableRecord
  2
CENTER2
 70
0
  3
Center (.5x) ___ _ ___ _ ___ _ ___ _ ___ _ ___
 72
65
 73
4
 40
28.5749999999999993
 49
19.0500000000000007
 74
0
 49
-3.1749999999999998
 74
0
 49
3.1749999999999998
 74
0
 49
-3.1749999999999998
 74
0
  0
LTYPE
  5
3F
100
AcDbSymbolTableRecord
100
AcDbLinetypeTableRecord
  2
CENTERX2
 70
0
  3
Center (2x) ________  __  ________  __  _____
 72
65
 73
4
 40
101.5999999999999943
 49
63.5
 74
0
 49
-12.6999999999999993
 74
0
 49
12.6999999999999993
 74
0
 49
-12.6999999999999993
 74
0
  0
LTYPE
  5
40
100
AcDbSymbolTableRecord
100
AcDbLinetypeTableRecord
  2
BORDER
 70
0
  3
Border __ __ . __ __ . __ __ . __ __ . __ __ .
 72
65
 73
6
 40
44.4500000000000028
 49
12.6999999999999993
 74
0
 49
-6.3499999999999996
 74
0
 49
12.6999999999999993
 74
0
 49
-6.3499999999999996
 74
0
 49
0.0
 74
0
 49
-6.3499999999999996
 74
0
  0
LTYPE
  5
41
100
AcDbSymbolTableRecord
100
AcDbLinetypeTableRecord
  2
BORDER2
 70
0
  3
Border (.5x) __.__.__.__.__.__.__.__.__.__.__.
 72
65
 73
6
 40
22.2250000000000014
 49
6.3499999999999996
 74
0
 49
-3.1749999999999998
 74
0
 49
6.3499999999999996
 74
0
 49
-3.1749999999999998
 74
0
 49
0.0
 74
0
 49
-3.1749999999999998
 74
0
  0
LTYPE
  5
42
100
AcDbSymbolTableRecord
100
AcDbLinetypeTableRecord
  2
BORDERX2
 70
0
  3
Border (2x) ____  ____  .  ____  ____  .  ___
 72
65
 73
6
 40
88.9000000000000057
 49
25.3999999999999986
 74
0
 49
-12.6999999999999993
 74
0
 49
25.3999999999999986
 74
0
 49
-12.6999999999999993
 74
0
 49
0.0
 74
0
 49
-12.6999999999999993
 74
0
  0
ENDTAB
  0
TABLE
  2
LAYER
  5
2
100
AcDbSymbolTable
 70
2
  0
LAYER
  5
10
100
AcDbSymbolTableRecord
100
AcDbLayerTableRecord
  2
0
 70
4
 62
7
420
16777215
  6
CONTINUOUS
390
F
  0
LAYER
  5
43
100
AcDbSymbolTableRecord
100
AcDbLayerTableRecord
  2
Layer 1
 70
0
 62
4
420
65535
  6
ByLayer
390
F
  0
ENDTAB
  0
TABLE
  2
STYLE
  5
3
100
AcDbSymbolTable
 70
1
  0
STYLE
  5
11
100
AcDbSymbolTableRecord
100
AcDbTextStyleTableRecord
  2
Standard
 70
0
 40
0.0
 41
0.75
 50
0.0
 71
0
 42
2.5
  3
txt
  4

  0
ENDTAB
  0
TABLE
  2
VIEW
  5
6
100
AcDbSymbolTable
 70
0
  0
ENDTAB
  0
TABLE
  2
UCS
  5
7
100
AcDbSymbolTable
 70
0
  0
ENDTAB
  0
TABLE
  2
APPID
  5
9
100
AcDbSymbolTable
 70
1
  0
APPID
  5
12
100
AcDbSymbolTableRecord
100
AcDbRegAppTableRecord
  2
ACAD
 70
0
  0
ENDTAB
  0
TABLE
  2
DIMSTYLE
  5
A
100
AcDbSymbolTable
 70
1
100
AcDbDimStyleTable
 71
0
  0
DIMSTYLE
105
27
100
AcDbSymbolTableRecord
100
AcDbDimStyleTableRecord
  2
Standard
 41
2.5
 42
0.625
 43
3.75
 44
1.25
 70
0
 73
0
 74
0
 77
1
 78
8
140
2.5
141
2.5
143
0.03937007874016
147
0.625
171
3
172
1
271
2
272
2
274
3
278
44
283
0
284
8
340
11
  0
ENDTAB
  0
TABLE
  2
BLOCK_RECORD
  5
1
100
AcDbSymbolTable
 70
1
  0
BLOCK_RECORD
  5
1F
100
AcDbSymbolTableRecord
100
AcDbBlockTableRecord
  2
*Model_Space
340
22
  0
BLOCK_RECORD
  5
1B
100
AcDbSymbolTableRecord
100
AcDbBlockTableRecord
  2
*Paper_Space
340
1E
  0
BLOCK_RECORD
  5
23
100
AcDbSymbolTableRecord
100
AcDbBlockTableRecord
  2
*Paper_Space0
340
26
  0
ENDTAB
  0
ENDSEC
  0
SECTION
  2
BLOCKS
  0
BLOCK
  5
20
100
AcDbEntity
  8
0
100
AcDbBlockBegin
  2
*Model_Space
 70
0
 10
0.0
 20
0.0
 30
0.0
  3
*Model_Space
  1

  0
ENDBLK
  5
21
100
AcDbEntity
  8
0
100
AcDbBlockEnd
  0
BLOCK
  5
1C
100
AcDbEntity
 67
1
  8
0
100
AcDbBlockBegin
  2
*Paper_Space
 70
0
 10
0.0
 20
0.0
 30
0.0
  3
*Paper_Space
  1

  0
ENDBLK
  5
1D
100
AcDbEntity
 67
1
  8
0
100
AcDbBlockEnd
  0
BLOCK
  5
24
100
AcDbEntity
  8
0
100
AcDbBlockBegin
  2
*Paper_Space0
 70
0
 10
0.0
 20
0.0
 30
0.0
  3
*Paper_Space0
  1

  0
ENDBLK
  5
25
100
AcDbEntity
  8
0
100
AcDbBlockEnd
  0
ENDSEC
  0
SECTION
  2
ENTITIES
  0
LINE
  5
44
100
AcDbEntity
100
AcDbLine
  8
Layer 1
 62
4
420
65535
370
-1
  6
ByLayer
 10
218.7879791999999952
 20
91.7401575999999892
 30
0.0
 11
226.9159791999999811
 21
91.7401575999999892
 31
0.0
  0
LINE
  5
45
100
AcDbEntity
100
AcDbLine
  8
Layer 1
 62
4
420
65535
370
-1
  6
ByLayer
 10
226.9159791999999811
 20
91.7401575999999892
 30
0.0
 11
226.9159791999999811
 21
145.0900920000000269
 31
0.0
  0
LINE
  5
46
100
AcDbEntity
100
AcDbLine
  8
Layer 1
 62
4
420
65535
370
-1
  6
ByLayer
 10
226.9159791999999811
 20
145.0900920000000269
 30
0.0
 11
230.9799792000000025
 21
145.0900920000000269
 31
0.0
  0
LINE
  5
47
100
AcDbEntity
100
AcDbLine
  8
Layer 1
 62
4
420
65535
370
-1
  6
ByLayer
 10
230.9799792000000025
 20
145.0900920000000269
 30
0.0
 11
230.9799792000000025
 21
91.681455200000002
 31
0.0
  0
LINE
  5
48
100
AcDbEntity
100
AcDbLine
  8
Layer 1
 62
4
420
65535
370
-1
  6
ByLayer
 10
230.9799792000000025
 20
91.681455200000002
 30
0.0
 11
352.8999791999999616
 21
91.681455200000002
 31
0.0
  0
LINE
  5
49
100
AcDbEntity
100
AcDbLine
  8
Layer 1
 62
4
420
65535
370
-1
  6
ByLayer
 10
352.8999791999999616
 20
91.681455200000002
 30
0.0
 11
352.8999791999999616
 21
145.0900920000000269
 31
0.0
  0
LINE
  5
4A
100
AcDbEntity
100
AcDbLine
  8
Layer 1
 62
4
420
65535
370
-1
  6
ByLayer
 10
352.8999791999999616
 20
145.0900920000000269
 30
0.0
 11
356.9639792000000398
 21
145.0900920000000269
 31
0.0
  0
LINE
  5
4B
100
AcDbEntity
100
AcDbLine
  8
Layer 1
 62
4
420
65535
370
-1
  6
ByLayer
 10
356.9639792000000398
 20
145.0900920000000269
 30
0.0
 11
356.9639792000000398
 21
91.7401575999999892
 31
0.0
  0
LINE
  5
4C
100
AcDbEntity
100
AcDbLine
  8
Layer 1
 62
4
420
65535
370
-1
  6
ByLayer
 10
356.9639792000000398
 20
91.7401575999999892
 30
0.0
 11
365.0919791999999688
 21
91.7401575999999892
 31
0.0
  0
LINE
  5
4D
100
AcDbEntity
100
AcDbLine
  8
Layer 1
 62
4
420
65535
370
-1
  6
ByLayer
 10
365.0919791999999688
 20
91.7401575999999892
 30
0.0
 11
365.0919791999999688
 21
198.468474399999991
 31
0.0
  0
LINE
  5
4E
100
AcDbEntity
100
AcDbLine
  8
Layer 1
 62
4
420
65535
370
-1
  6
ByLayer
 10
365.0919791999999688
 20
198.468474399999991
 30
0.0
 11
218.7879791999999952
 21
198.468474399999991
 31
0.0
  0
LINE
  5
4F
100
AcDbEntity
100
AcDbLine
  8
Layer 1
 62
4
420
65535
370
-1
  6
ByLayer
 10
218.7879791999999952
 20
198.468474399999991
 30
0.0
 11
218.7879791999999952
 21
91.7401575999999892
 31
0.0
  0
LINE
  5
50
100
AcDbEntity
100
AcDbLine
  8
Layer 1
 62
4
420
65535
370
-1
  6
ByLayer
 10
218.7879791999999952
 20
91.7401575999999892
 30
0.0
 11
218.7879791999999952
 21
91.7401575999999892
 31
0.0
  0
LINE
  5
51
100
AcDbEntity
100
AcDbLine
  8
Layer 1
 62
4
420
65535
370
-1
  6
ByLayer
 10
237.66525919999998
 20
187.0025752000000239
 30
0.0
 11
237.505494399999975
 21
186.2118743999999992
 31
0.0
  0
LINE
  5
52
100
AcDbEntity
100
AcDbLine
  8
Layer 1
 62
4
420
65535
370
-1
  6
ByLayer
 10
237.505494399999975
 20
186.2118743999999992
 30
0.0
 11
237.0698831999999925
 21
185.5659511999999722
 31
0.0
  0
LINE
  5
53
100
AcDbEntity
100
AcDbLine
  8
Layer 1
 62
4
420
65535
370
-1
  6
ByLayer
 10
237.0698831999999925
 20
185.5659511999999722
 30
0.0
 11
236.4239616000000126
 21
185.1303416000000084
 31
0.0
  0
LINE
  5
54
100
AcDbEntity
100
AcDbLine
  8
Layer 1
 62
4
420
65535
370
-1
  6
ByLayer
 10
236.4239616000000126
 20
185.1303416000000084
 30
0.0
 11
235.6332591999999977
 21
184.9705751999999848
 31
0.0
  0
LINE
  5
55
100
AcDbEntity
100
AcDbLine
  8
Layer 1
 62
4
420
65535
370
-1
  6
ByLayer
 10
235.6332591999999977
 20
184.9705751999999848
 30
0.0
 11
234.8425584000000015
 21
185.1303416000000084
 31
0.0
  0
LINE
  5
56
100
AcDbEntity
100
AcDbLine
  8
Layer 1
 62
4
420
65535
370
-1
  6
ByLayer
 10
234.8425584000000015
 20
185.1303416000000084
 30
0.0
 11
234.1966351999999745
 21
185.5659511999999722
 31
0.0
  0
LINE
  5
57
100
AcDbEntity
100
AcDbLine
  8
Layer 1
 62
4
420
65535
370
-1
  6
ByLayer
 10
234.1966351999999745
 20
185.5659511999999722
 30
0.0
 11
233.7610255999999822
 21
186.2118743999999992
 31
0.0
  0
LINE
  5
58
100
AcDbEntity
100
AcDbLine
  8
Layer 1
 62
4
420
65535
370
-1
  6
ByLayer
 10
233.7610255999999822
 20
186.2118743999999992
 30
0.0
 11
233.601259199999987
 21
187.0025752000000239
 31
0.0
  0
LINE
  5
59
100
AcDbEntity
100
AcDbLine
  8
Layer 1
 62
4
420
65535
370
-1
  6
ByLayer
 10
233.601259199999987
 20
187.0025752000000239
 30
0.0
 11
233.7610255999999822
 21
187.7932775999999819
 31
0.0
  0
LINE
  5
5A
100
AcDbEntity
100
AcDbLine
  8
Layer 1
 62
4
420
65535
370
-1
  6
ByLayer
 10
233.7610255999999822
 20
187.7932775999999819
 30
0.0
 11
234.1966351999999745
 21
188.4391992000000187
 31
0.0
  0
LINE
  5
5B
100
AcDbEntity
100
AcDbLine
  8
Layer 1
 62
4
420
65535
370
-1
  6
ByLayer
 10
234.1966351999999745
 20
188.4391992000000187
 30
0.0
 11
234.8425584000000015
 21
188.8748104000000012
 31
0.0
  0
LINE
  5
5C
100
AcDbEntity
100
AcDbLine
  8
Layer 1
 62
4
420
65535
370
-1
  6
ByLayer
 10
234.8425584000000015
 20
188.8748104000000012
 30
0.0
 11
235.6332591999999977
 21
189.0345752000000061
 31
0.0
  0
LINE
  5
5D
100
AcDbEntity
100
AcDbLine
  8
Layer 1
 62
4
420
65535
370
-1
  6
ByLayer
 10
235.6332591999999977
 20
189.0345752000000061
 30
0.0
 11
236.4239616000000126
 21
188.8748104000000012
 31
0.0
  0
LINE
  5
5E
100
AcDbEntity
100
AcDbLine
  8
Layer 1
 62
4
420
65535
370
-1
  6
ByLayer
 10
236.4239616000000126
 20
188.8748104000000012
 30
0.0
 11
237.0698831999999925
 21
188.4391992000000187
 31
0.0
  0
LINE
  5
5F
100
AcDbEntity
100
AcDbLine
  8
Layer 1
 62
4
420
65535
370
-1
  6
ByLayer
 10
237.0698831999999925
 20
188.4391992000000187
 30
0.0
 11
237.505494399999975
 21
187.7932775999999819
 31
0.0
  0
LINE
  5
60
100
AcDbEntity
100
AcDbLine
  8
Layer 1
 62
4
420
65535
370
-1
  6
ByLayer
 10
237.505494399999975
 20
187.7932775999999819
 30
0.0
 11
237.66525919999998
 21
187.0025752000000239
 31
0.0
  0
LINE
  5
61
100
AcDbEntity
100
AcDbLine
  8
Layer 1
 62
4
420
65535
370
-1
  6
ByLayer
 10
237.66525919999998
 20
187.0025752000000239
 30
0.0
 11
237.66525919999998
 21
187.0025752000000239
 31
0.0
  0
LINE
  5
62
100
AcDbEntity
100
AcDbLine
  8
Layer 1
 62
4
420
65535
370
-1
  6
ByLayer
 10
350.3053408000000104
 20
187.0025752000000239
 30
0.0
 11
350.1455760000000055
 21
186.2118743999999992
 31
0.0
  0
LINE
  5
63
100
AcDbEntity
100
AcDbLine
  8
Layer 1
 62
4
420
65535
370
-1
  6
ByLayer
 10
350.1455760000000055
 20
186.2118743999999992
 30
0.0
 11
349.7099647999999661
 21
185.5659511999999722
 31
0.0
  0
LINE
  5
64
100
AcDbEntity
100
AcDbLine
  8
Layer 1
 62
4
420
65535
370
-1
  6
ByLayer
 10
349.7099647999999661
 20
185.5659511999999722
 30
0.0
 11
349.0640431999999578
 21
185.1303416000000084
 31
0.0
  0
LINE
  5
65
100
AcDbEntity
100
AcDbLine
  8
Layer 1
 62
4
420
65535
370
-1
  6
ByLayer
 10
349.0640431999999578
 20
185.1303416000000084
 30
0.0
 11
348.2733408000000281
 21
184.9705751999999848
 31
0.0
  0
LINE
  5
66
100
AcDbEntity
100
AcDbLine
  8
Layer 1
 62
4
420
65535
370
-1
  6
ByLayer
 10
348.2733408000000281
 20
184.9705751999999848
 30
0.0
 11
347.4826400000000604
 21
185.1303416000000084
 31
0.0
  0
LINE
  5
67
100
AcDbEntity
100
AcDbLine
  8
Layer 1
 62
4
420
65535
370
-1
  6
ByLayer
 10
347.4826400000000604
 20
185.1303416000000084
 30
0.0
 11
346.8367167999999765
 21
185.5659511999999722
 31
0.0
  0
LINE
  5
68
100
AcDbEntity
100
AcDbLine
  8
Layer 1
 62
4
420
65535
370
-1
  6
ByLayer
 10
346.8367167999999765
 20
185.5659511999999722
 30
0.0
 11
346.4011071999999558
 21
186.2118743999999992
 31
0.0
  0
LINE
  5
69
100
AcDbEntity
100
AcDbLine
  8
Layer 1
 62
4
420
65535
370
-1
  6
ByLayer
 10
346.4011071999999558
 20
186.2118743999999992
 30
0.0
 11
346.241340799999989
 21
187.0025752000000239
 31
0.0
  0
LINE
  5
6A
100
AcDbEntity
100
AcDbLine
  8
Layer 1
 62
4
420
65535
370
-1
  6
ByLayer
 10
346.241340799999989
 20
187.0025752000000239
 30
0.0
 11
346.4011071999999558
 21
187.7932775999999819
 31
0.0
  0
LINE
  5
6B
100
AcDbEntity
100
AcDbLine
  8
Layer 1
 62
4
420
65535
370
-1
  6
ByLayer
 10
346.4011071999999558
 20
187.7932775999999819
 30
0.0
 11
346.8367167999999765
 21
188.4391992000000187
 31
0.0
  0
LINE
  5
6C
100
AcDbEntity
100
AcDbLine
  8
Layer 1
 62
4
420
65535
370
-1
  6
ByLayer
 10
346.8367167999999765
 20
188.4391992000000187
 30
0.0
 11
347.4826400000000604
 21
188.8748104000000012
 31
0.0
  0
LINE
  5
6D
100
AcDbEntity
100
AcDbLine
  8
Layer 1
 62
4
420
65535
370
-1
  6
ByLayer
 10
347.4826400000000604
 20
188.8748104000000012
 30
0.0
 11
348.2733408000000281
 21
189.0345752000000061
 31
0.0
  0
LINE
  5
6E
100
AcDbEntity
100
AcDbLine
  8
Layer 1
 62
4
420
65535
370
-1
  6
ByLayer
 10
348.2733408000000281
 20
189.0345752000000061
 30
0.0
 11
349.0640431999999578
 21
188.8748104000000012
 31
0.0
  0
LINE
  5
6F
100
AcDbEntity
100
AcDbLine
  8
Layer 1
 62
4
420
65535
370
-1
  6
ByLayer
 10
349.0640431999999578
 20
188.8748104000000012
 30
0.0
 11
349.7099647999999661
 21
188.4391992000000187
 31
0.0
  0
LINE
  5
70
100
AcDbEntity
100
AcDbLine
  8
Layer 1
 62
4
420
65535
370
-1
  6
ByLayer
 10
349.7099647999999661
 20
188.4391992000000187
 30
0.0
 11
350.1455760000000055
 21
187.7932775999999819
 31
0.0
  0
LINE
  5
71
100
AcDbEntity
100
AcDbLine
  8
Layer 1
 62
4
420
65535
370
-1
  6
ByLayer
 10
350.1455760000000055
 20
187.7932775999999819
 30
0.0
 11
350.3053408000000104
 21
187.0025752000000239
 31
0.0
  0
LINE
  5
72
100
AcDbEntity
100
AcDbLine
  8
Layer 1
 62
4
420
65535
370
-1
  6
ByLayer
 10
350.3053408000000104
 20
187.0025752000000239
 30
0.0
 11
350.3053408000000104
 21
187.0025752000000239
 31
0.0
  0
LINE
  5
73
100
AcDbEntity
100
AcDbLine
  8
Layer 1
 62
4
420
65535
370
-1
  6
ByLayer
 10
350.3053408000000104
 20
103.8025608000000091
 30
0.0
 11
350.1455760000000055
 21
103.0118599999999986
 31
0.0
  0
LINE
  5
74
100
AcDbEntity
100
AcDbLine
  8
Layer 1
 62
4
420
65535
370
-1
  6
ByLayer
 10
350.1455760000000055
 20
103.0118599999999986
 30
0.0
 11
349.7099647999999661
 21
102.3659368000000001
 31
0.0
  0
LINE
  5
75
100
AcDbEntity
100
AcDbLine
  8
Layer 1
 62
4
420
65535
370
-1
  6
ByLayer
 10
349.7099647999999661
 20
102.3659368000000001
 30
0.0
 11
349.0640431999999578
 21
101.9303272000000078
 31
0.0
  0
LINE
  5
76
100
AcDbEntity
100
AcDbLine
  8
Layer 1
 62
4
420
65535
370
-1
  6
ByLayer
 10
349.0640431999999578
 20
101.9303272000000078
 30
0.0
 11
348.2733408000000281
 21
101.7705607999999984
 31
0.0
  0
LINE
  5
77
100
AcDbEntity
100
AcDbLine
  8
Layer 1
 62
4
420
65535
370
-1
  6
ByLayer
 10
348.2733408000000281
 20
101.7705607999999984
 30
0.0
 11
347.4826400000000604
 21
101.9303272000000078
 31
0.0
  0
LINE
  5
78
100
AcDbEntity
100
AcDbLine
  8
Layer 1
 62
4
420
65535
370
-1
  6
ByLayer
 10
347.4826400000000604
 20
101.9303272000000078
 30
0.0
 11
346.8367167999999765
 21
102.3659368000000001
 31
0.0
  0
LINE
  5
79
100
AcDbEntity
100
AcDbLine
  8
Layer 1
 62
4
420
65535
370
-1
  6
ByLayer
 10
346.8367167999999765
 20
102.3659368000000001
 30
0.0
 11
346.4011071999999558
 21
103.0118599999999986
 31
0.0
  0
LINE
  5
7A
100
AcDbEntity
100
AcDbLine
  8
Layer 1
 62
4
420
65535
370
-1
  6
ByLayer
 10
346.4011071999999558
 20
103.0118599999999986
 30
0.0
 11
346.241340799999989
 21
103.8025608000000091
 31
0.0
  0
LINE
  5
7B
100
AcDbEntity
100
AcDbLine
  8
Layer 1
 62
4
420
65535
370
-1
  6
ByLayer
 10
346.241340799999989
 20
103.8025608000000091
 30
0.0
 11
346.4011071999999558
 21
104.5932631999999955
 31
0.0
  0
LINE
  5
7C
100
AcDbEntity
100
AcDbLine
  8
Layer 1
 62
4
420
65535
370
-1
  6
ByLayer
 10
346.4011071999999558
 20
104.5932631999999955
 30
0.0
 11
346.8367167999999765
 21
105.2391847999999897
 31
0.0
  0
LINE
  5
7D
100
AcDbEntity
100
AcDbLine
  8
Layer 1
 62
4
420
65535
370
-1
  6
ByLayer
 10
346.8367167999999765
 20
105.2391847999999897
 30
0.0
 11
347.4826400000000604
 21
105.6747960000000148
 31
0.0
  0
LINE
  5
7E
100
AcDbEntity
100
AcDbLine
  8
Layer 1
 62
4
420
65535
370
-1
  6
ByLayer
 10
347.4826400000000604
 20
105.6747960000000148
 30
0.0
 11
348.2733408000000281
 21
105.8345608000000055
 31
0.0
  0
LINE
  5
7F
100
AcDbEntity
100
AcDbLine
  8
Layer 1
 62
4
420
65535
370
-1
  6
ByLayer
 10
348.2733408000000281
 20
105.8345608000000055
 30
0.0
 11
349.0640431999999578
 21
105.6747960000000148
 31
0.0
  0
LINE
  5
80
100
AcDbEntity
100
AcDbLine
  8
Layer 1
 62
4
420
65535
370
-1
  6
ByLayer
 10
349.0640431999999578
 20
105.6747960000000148
 30
0.0
 11
349.7099647999999661
 21
105.2391847999999897
 31
0.0
  0
LINE
  5
81
100
AcDbEntity
100
AcDbLine
  8
Layer 1
 62
4
420
65535
370
-1
  6
ByLayer
 10
349.7099647999999661
 20
105.2391847999999897
 30
0.0
 11
350.1455760000000055
 21
104.5932631999999955
 31
0.0
  0
LINE
  5
82
100
AcDbEntity
100
AcDbLine
  8
Layer 1
 62
4
420
65535
370
-1
  6
ByLayer
 10
350.1455760000000055
 20
104.5932631999999955
 30
0.0
 11
350.3053408000000104
 21
103.8025608000000091
 31
0.0
  0
LINE
  5
83
100
AcDbEntity
100
AcDbLine
  8
Layer 1
 62
4
420
65535
370
-1
  6
ByLayer
 10
350.3053408000000104
 20
103.8025608000000091
 30
0.0
 11
350.3053408000000104
 21
103.8025608000000091
 31
0.0
  0
LINE
  5
84
100
AcDbEntity
100
AcDbLine
  8
Layer 1
 62
4
420
65535
370
-1
  6
ByLayer
 10
237.6634527999999875
 20
103.8025608000000091
 30
0.0
 11
237.503688000000011
 21
103.0118599999999986
 31
0.0
  0
LINE
  5
85
100
AcDbEntity
100
AcDbLine
  8
Layer 1
 62
4
420
65535
370
-1
  6
ByLayer
 10
237.503688000000011
 20
103.0118599999999986
 30
0.0
 11
237.0680768
 21
102.3659368000000001
 31
0.0
  0
LINE
  5
86
100
AcDbEntity
100
AcDbLine
  8
Layer 1
 62
4
420
65535
370
-1
  6
ByLayer
 10
237.0680768
 20
102.3659368000000001
 30
0.0
 11
236.4221551999999917
 21
101.9303272000000078
 31
0.0
  0
LINE
  5
87
100
AcDbEntity
100
AcDbLine
  8
Layer 1
 62
4
420
65535
370
-1
  6
ByLayer
 10
236.4221551999999917
 20
101.9303272000000078
 30
0.0
 11
235.6314528000000337
 21
101.7705607999999984
 31
0.0
  0
LINE
  5
88
100
AcDbEntity
100
AcDbLine
  8
Layer 1
 62
4
420
65535
370
-1
  6
ByLayer
 10
235.6314528000000337
 20
101.7705607999999984
 30
0.0
 11
234.840752000000009
 21
101.9303272000000078
 31
0.0
  0
LINE
  5
89
100
AcDbEntity
100
AcDbLine
  8
Layer 1
 62
4
420
65535
370
-1
  6
ByLayer
 10
234.840752000000009
 20
101.9303272000000078
 30
0.0
 11
234.194828799999982
 21
102.3659368000000001
 31
0.0
  0
LINE
  5
8A
100
AcDbEntity
100
AcDbLine
  8
Layer 1
 62
4
420
65535
370
-1
  6
ByLayer
 10
234.194828799999982
 20
102.3659368000000001
 30
0.0
 11
233.7592191999999898
 21
103.0118599999999986
 31
0.0
  0
LINE
  5
8B
100
AcDbEntity
100
AcDbLine
  8
Layer 1
 62
4
420
65535
370
-1
  6
ByLayer
 10
233.7592191999999898
 20
103.0118599999999986
 30
0.0
 11
233.5994527999999946
 21
103.8025608000000091
 31
0.0
  0
LINE
  5
8C
100
AcDbEntity
100
AcDbLine
  8
Layer 1
 62
4
420
65535
370
-1
  6
ByLayer
 10
233.5994527999999946
 20
103.8025608000000091
 30
0.0
 11
233.7592191999999898
 21
104.5932631999999955
 31
0.0
  0
LINE
  5
8D
100
AcDbEntity
100
AcDbLine
  8
Layer 1
 62
4
420
65535
370
-1
  6
ByLayer
 10
233.7592191999999898
 20
104.5932631999999955
 30
0.0
 11
234.194828799999982
 21
105.2391847999999897
 31
0.0
  0
LINE
  5
8E
100
AcDbEntity
100
AcDbLine
  8
Layer 1
 62
4
420
65535
370
-1
  6
ByLayer
 10
234.194828799999982
 20
105.2391847999999897
 30
0.0
 11
234.840752000000009
 21
105.6747960000000148
 31
0.0
  0
LINE
  5
8F
100
AcDbEntity
100
AcDbLine
  8
Layer 1
 62
4
420
65535
370
-1
  6
ByLayer
 10
234.840752000000009
 20
105.6747960000000148
 30
0.0
 11
235.6314528000000337
 21
105.8345608000000055
 31
0.0
  0
LINE
  5
90
100
AcDbEntity
100
AcDbLine
  8
Layer 1
 62
4
420
65535
370
-1
  6
ByLayer
 10
235.6314528000000337
 20
105.8345608000000055
 30
0.0
 11
236.4221551999999917
 21
105.6747960000000148
 31
0.0
  0
LINE
  5
91
100
AcDbEntity
100
AcDbLine
  8
Layer 1
 62
4
420
65535
370
-1
  6
ByLayer
 10
236.4221551999999917
 20
105.6747960000000148
 30
0.0
 11
237.0680768
 21
105.2391847999999897
 31
0.0
  0
LINE
  5
92
100
AcDbEntity
100
AcDbLine
  8
Layer 1
 62
4
420
65535
370
-1
  6
ByLayer
 10
237.0680768
 20
105.2391847999999897
 30
0.0
 11
237.503688000000011
 21
104.5932631999999955
 31
0.0
  0
LINE
  5
93
100
AcDbEntity
100
AcDbLine
  8
Layer 1
 62
4
420
65535
370
-1
  6
ByLayer
 10
237.503688000000011
 20
104.5932631999999955
 30
0.0
 11
237.6634527999999875
 21
103.8025608000000091
 31
0.0
  0
LINE
  5
94
100
AcDbEntity
100
AcDbLine
  8
Layer 1
 62
4
420
65535
370
-1
  6
ByLayer
 10
237.6634527999999875
 20
103.8025608000000091
 30
0.0
 11
237.6634527999999875
 21
103.8025608000000091
 31
0.0
  0
LINE
  5
95
100
AcDbEntity
100
AcDbLine
  8
Layer 1
 62
4
420
65535
370
-1
  6
ByLayer
 10
214.0385184000000152
 20
92.6351720000000114
 30
0.0
 11
214.0385184000000152
 21
199.3860664000000043
 31
0.0
  0
LINE
  5
96
100
AcDbEntity
100
AcDbLine
  8
Layer 1
 62
4
420
65535
370
-1
  6
ByLayer
 10
214.0385184000000152
 20
199.3860664000000043
 30
0.0
 11
205.9096159999999998
 21
199.3707144000000255
 31
0.0
  0
LINE
  5
97
100
AcDbEntity
100
AcDbLine
  8
Layer 1
 62
4
420
65535
370
-1
  6
ByLayer
 10
205.9096159999999998
 20
199.3707144000000255
 30
0.0
 11
205.9100671999999861
 21
145.9173783999999898
 31
0.0
  0
LINE
  5
98
100
AcDbEntity
100
AcDbLine
  8
Layer 1
 62
4
420
65535
370
-1
  6
ByLayer
 10
205.9100671999999861
 20
145.9173783999999898
 30
0.0
 11
201.8465184000000079
 21
145.9173783999999898
 31
0.0
  0
LINE
  5
99
100
AcDbEntity
100
AcDbLine
  8
Layer 1
 62
4
420
65535
370
-1
  6
ByLayer
 10
201.8465184000000079
 20
145.9173783999999898
 30
0.0
 11
201.8465184000000079
 21
199.4181319999999857
 31
0.0
  0
LINE
  5
9A
100
AcDbEntity
100
AcDbLine
  8
Layer 1
 62
4
420
65535
370
-1
  6
ByLayer
 10
201.8465184000000079
 20
199.4181319999999857
 30
0.0
 11
178.6451424000000259
 21
199.4181319999999857
 31
0.0
  0
LINE
  5
9B
100
AcDbEntity
100
AcDbLine
  8
Layer 1
 62
4
420
65535
370
-1
  6
ByLayer
 10
178.6451424000000259
 20
199.4181319999999857
 30
0.0
 11
163.9194640000000049
 21
199.4578679999999906
 31
0.0
  0
LINE
  5
9C
100
AcDbEntity
100
AcDbLine
  8
Layer 1
 62
4
420
65535
370
-1
  6
ByLayer
 10
163.9194640000000049
 20
199.4578679999999906
 30
0.0
 11
120.8704160000000059
 21
173.4645240000000115
 31
0.0
  0
LINE
  5
9D
100
AcDbEntity
100
AcDbLine
  8
Layer 1
 62
4
420
65535
370
-1
  6
ByLayer
 10
120.8704160000000059
 20
173.4645240000000115
 30
0.0
 11
120.8704160000000059
 21
118.5892359999999996
 31
0.0
  0
LINE
  5
9E
100
AcDbEntity
100
AcDbLine
  8
Layer 1
 62
4
420
65535
370
-1
  6
ByLayer
 10
120.8704160000000059
 20
118.5892359999999996
 30
0.0
 11
163.975457600000027
 21
92.5268040000000127
 31
0.0
  0
LINE
  5
9F
100
AcDbEntity
100
AcDbLine
  8
Layer 1
 62
4
420
65535
370
-1
  6
ByLayer
 10
163.975457600000027
 20
92.5268040000000127
 30
0.0
 11
163.897337599999986
 21
146.239336800000018
 31
0.0
  0
LINE
  5
A0
100
AcDbEntity
100
AcDbLine
  8
Layer 1
 62
4
420
65535
370
-1
  6
ByLayer
 10
163.897337599999986
 20
146.239336800000018
 30
0.0
 11
167.960886400000021
 21
146.2384344000000169
 31
0.0
  0
LINE
  5
A1
100
AcDbEntity
100
AcDbLine
  8
Layer 1
 62
4
420
65535
370
-1
  6
ByLayer
 10
167.960886400000021
 20
146.2384344000000169
 30
0.0
 11
168.0001712000000111
 21
92.4274616000000151
 31
0.0
  0
LINE
  5
A2
100
AcDbEntity
100
AcDbLine
  8
Layer 1
 62
4
420
65535
370
-1
  6
ByLayer
 10
168.0001712000000111
 20
92.4274616000000151
 30
0.0
 11
214.0385184000000152
 21
92.6351767999999964
 31
0.0
  0
LINE
  5
A3
100
AcDbEntity
100
AcDbLine
  8
Layer 1
 62
4
420
65535
370
-1
  6
ByLayer
 10
214.0385184000000152
 20
92.6351767999999964
 30
0.0
 11
214.0385184000000152
 21
92.6351720000000114
 31
0.0
  0
LINE
  5
A4
100
AcDbEntity
100
AcDbLine
  8
Layer 1
 62
4
420
65535
370
-1
  6
ByLayer
 10
367.9616159999999923
 20
92.6351720000000114
 30
0.0
 11
367.9616159999999923
 21
199.3860664000000043
 31
0.0
  0
LINE
  5
A5
100
AcDbEntity
100
AcDbLine
  8
Layer 1
 62
4
420
65535
370
-1
  6
ByLayer
 10
367.9616159999999923
 20
199.3860664000000043
 30
0.0
 11
376.0905183999999508
 21
199.3707144000000255
 31
0.0
  0
LINE
  5
A6
100
AcDbEntity
100
AcDbLine
  8
Layer 1
 62
4
420
65535
370
-1
  6
ByLayer
 10
376.0905183999999508
 20
199.3707144000000255
 30
0.0
 11
376.0900672000000213
 21
145.8826088000000141
 31
0.0
  0
LINE
  5
A7
100
AcDbEntity
100
AcDbLine
  8
Layer 1
 62
4
420
65535
370
-1
  6
ByLayer
 10
376.0900672000000213
 20
145.8826088000000141
 30
0.0
 11
380.1522608000000218
 21
145.8826088000000141
 31
0.0
  0
LINE
  5
A8
100
AcDbEntity
100
AcDbLine
  8
Layer 1
 62
4
420
65535
370
-1
  6
ByLayer
 10
380.1522608000000218
 20
145.8826088000000141
 30
0.0
 11
380.1522608000000218
 21
199.4181319999999857
 31
0.0
  0
LINE
  5
A9
100
AcDbEntity
100
AcDbLine
  8
Layer 1
 62
4
420
65535
370
-1
  6
ByLayer
 10
380.1522608000000218
 20
199.4181319999999857
 30
0.0
 11
403.3531855999999607
 21
199.4181319999999857
 31
0.0
  0
LINE
  5
AA
100
AcDbEntity
100
AcDbLine
  8
Layer 1
 62
4
420
65535
370
-1
  6
ByLayer
 10
403.3531855999999607
 20
199.4181319999999857
 30
0.0
 11
418.078411200000005
 21
199.4578679999999906
 31
0.0
  0
LINE
  5
AB
100
AcDbEntity
100
AcDbLine
  8
Layer 1
 62
4
420
65535
370
-1
  6
ByLayer
 10
418.078411200000005
 20
199.4578679999999906
 30
0.0
 11
461.1297184000000016
 21
173.4645240000000115
 31
0.0
  0
LINE
  5
AC
100
AcDbEntity
100
AcDbLine
  8
Layer 1
 62
4
420
65535
370
-1
  6
ByLayer
 10
461.1297184000000016
 20
173.4645240000000115
 30
0.0
 11
461.1297184000000016
 21
118.5892359999999996
 31
0.0
  0
LINE
  5
AD
100
AcDbEntity
100
AcDbLine
  8
Layer 1
 62
4
420
65535
370
-1
  6
ByLayer
 10
461.1297184000000016
 20
118.5892359999999996
 30
0.0
 11
418.0242256000000225
 21
92.5268040000000127
 31
0.0
  0
LINE
  5
AE
100
AcDbEntity
100
AcDbLine
  8
Layer 1
 62
4
420
65535
370
-1
  6
ByLayer
 10
418.0242256000000225
 20
92.5268040000000127
 30
0.0
 11
418.1009887999999819
 21
146.3495160000000226
 31
0.0
  0
LINE
  5
AF
100
AcDbEntity
100
AcDbLine
  8
Layer 1
 62
4
420
65535
370
-1
  6
ByLayer
 10
418.1009887999999819
 20
146.3495160000000226
 30
0.0
 11
414.0369888000000174
 21
146.3486136000000215
 31
0.0
  0
LINE
  5
B0
100
AcDbEntity
100
AcDbLine
  8
Layer 1
 62
4
420
65535
370
-1
  6
ByLayer
 10
414.0369888000000174
 20
146.3486136000000215
 30
0.0
 11
414.0008655999999974
 21
92.4274616000000151
 31
0.0
  0
LINE
  5
B1
100
AcDbEntity
100
AcDbLine
  8
Layer 1
 62
4
420
65535
370
-1
  6
ByLayer
 10
414.0008655999999974
 20
92.4274616000000151
 30
0.0
 11
367.9616159999999923
 21
92.6351767999999964
 31
0.0
  0
LINE
  5
B2
100
AcDbEntity
100
AcDbLine
  8
Layer 1
 62
4
420
65535
370
-1
  6
ByLayer
 10
367.9616159999999923
 20
92.6351767999999964
 30
0.0
 11
367.9616159999999923
 21
92.6351720000000114
 31
0.0
  0
LINE
  5
B3
100
AcDbEntity
100
AcDbLine
  8
Layer 1
 62
4
420
65535
370
-1
  6
ByLayer
 10
392.3984480000000303
 20
140.5221928000000275
 30
0.0
 11
392.5897936000000072
 21
140.0624504000000172
 31
0.0
  0
LINE
  5
B4
100
AcDbEntity
100
AcDbLine
  8
Layer 1
 62
4
420
65535
370
-1
  6
ByLayer
 10
392.5897936000000072
 20
140.0624504000000172
 30
0.0
 11
393.0486879999999701
 21
139.8719480000000033
 31
0.0
  0
LINE
  5
B5
100
AcDbEntity
100
AcDbLine
  8
Layer 1
 62
4
420
65535
370
-1
  6
ByLayer
 10
393.0486879999999701
 20
139.8719480000000033
 30
0.0
 11
393.5075808000000279
 21
140.0624472000000083
 31
0.0
  0
LINE
  5
B6
100
AcDbEntity
100
AcDbLine
  8
Layer 1
 62
4
420
65535
370
-1
  6
ByLayer
 10
393.5075808000000279
 20
140.0624472000000083
 30
0.0
 11
393.6989280000000235
 21
140.5221928000000275
 31
0.0
  0
LINE
  5
B7
100
AcDbEntity
100
AcDbLine
  8
Layer 1
 62
4
420
65535
370
-1
  6
ByLayer
 10
393.6989280000000235
 20
140.5221928000000275
 30
0.0
 11
393.5075808000000279
 21
140.9819303999999818
 31
0.0
  0
LINE
  5
B8
100
AcDbEntity
100
AcDbLine
  8
Layer 1
 62
4
420
65535
370
-1
  6
ByLayer
 10
393.5075808000000279
 20
140.9819303999999818
 30
0.0
 11
393.0486879999999701
 21
141.1724327999999957
 31
0.0
  0
LINE
  5
B9
100
AcDbEntity
100
AcDbLine
  8
Layer 1
 62
4
420
65535
370
-1
  6
ByLayer
 10
393.0486879999999701
 20
141.1724327999999957
 30
0.0
 11
392.5897936000000072
 21
140.981931999999972
 31
0.0
  0
LINE
  5
BA
100
AcDbEntity
100
AcDbLine
  8
Layer 1
 62
4
420
65535
370
-1
  6
ByLayer
 10
392.5897936000000072
 20
140.981931999999972
 30
0.0
 11
392.3984480000000303
 21
140.5221928000000275
 31
0.0
  0
LINE
  5
BB
100
AcDbEntity
100
AcDbLine
  8
Layer 1
 62
4
420
65535
370
-1
  6
ByLayer
 10
392.3984480000000303
 20
140.5221928000000275
 30
0.0
 11
392.3984480000000303
 21
140.5221928000000275
 31
0.0
  0
LINE
  5
BC
100
AcDbEntity
100
AcDbLine
  8
Layer 1
 62
4
420
65535
370
-1
  6
ByLayer
 10
230.1879519999999957
 20
351.8795384000000013
 30
0.0
 11
352.0636991999999736
 21
351.8795384000000013
 31
0.0
  0
LINE
  5
BD
100
AcDbEntity
100
AcDbLine
  8
Layer 1
 62
4
420
65535
370
-1
  6
ByLayer
 10
352.0636991999999736
 20
351.8795384000000013
 30
0.0
 11
352.0636991999999736
 21
338.9393112000000201
 31
0.0
  0
LINE
  5
BE
100
AcDbEntity
100
AcDbLine
  8
Layer 1
 62
4
420
65535
370
-1
  6
ByLayer
 10
352.0636991999999736
 20
338.9393112000000201
 30
0.0
 11
356.1137008000000037
 21
338.9343448000000762
 31
0.0
  0
LINE
  5
BF
100
AcDbEntity
100
AcDbLine
  8
Layer 1
 62
4
420
65535
370
-1
  6
ByLayer
 10
356.1137008000000037
 20
338.9343448000000762
 30
0.0
 11
356.1046688000000131
 21
330.7584792000000107
 31
0.0
  0
LINE
  5
C0
100
AcDbEntity
100
AcDbLine
  8
Layer 1
 62
4
420
65535
370
-1
  6
ByLayer
 10
356.1046688000000131
 20
330.7584792000000107
 30
0.0
 11
352.0786000000000513
 21
330.7471912000000316
 31
0.0
  0
LINE
  5
C1
100
AcDbEntity
100
AcDbLine
  8
Layer 1
 62
4
420
65535
370
-1
  6
ByLayer
 10
352.0786000000000513
 20
330.7471912000000316
 30
0.0
 11
352.0636991999999736
 21
317.7559367999999722
 31
0.0
  0
LINE
  5
C2
100
AcDbEntity
100
AcDbLine
  8
Layer 1
 62
4
420
65535
370
-1
  6
ByLayer
 10
352.0636991999999736
 20
317.7559367999999722
 30
0.0
 11
295.1175759999999855
 21
317.7532280000000355
 31
0.0
  0
LINE
  5
C3
100
AcDbEntity
100
AcDbLine
  8
Layer 1
 62
4
420
65535
370
-1
  6
ByLayer
 10
295.1175759999999855
 20
317.7532280000000355
 30
0.0
 11
295.1089967999999999
 21
315.5008680000000254
 31
0.0
  0
LINE
  5
C4
100
AcDbEntity
100
AcDbLine
  8
Layer 1
 62
4
420
65535
370
-1
  6
ByLayer
 10
295.1089967999999999
 20
315.5008680000000254
 30
0.0
 11
287.0929823999999826
 21
315.4995144000000664
 31
0.0
  0
LINE
  5
C5
100
AcDbEntity
100
AcDbLine
  8
Layer 1
 62
4
420
65535
370
-1
  6
ByLayer
 10
287.0929823999999826
 20
315.4995144000000664
 30
0.0
 11
287.0952399999999898
 21
317.7198167999999896
 31
0.0
  0
LINE
  5
C6
100
AcDbEntity
100
AcDbLine
  8
Layer 1
 62
4
420
65535
370
-1
  6
ByLayer
 10
287.0952399999999898
 20
317.7198167999999896
 30
0.0
 11
230.1879519999999957
 21
317.8421848000000409
 31
0.0
  0
LINE
  5
C7
100
AcDbEntity
100
AcDbLine
  8
Layer 1
 62
4
420
65535
370
-1
  6
ByLayer
 10
230.1879519999999957
 20
317.8421848000000409
 30
0.0
 11
230.1879519999999957
 21
330.8501448000000664
 31
0.0
  0
LINE
  5
C8
100
AcDbEntity
100
AcDbLine
  8
Layer 1
 62
4
420
65535
370
-1
  6
ByLayer
 10
230.1879519999999957
 20
330.8501448000000664
 30
0.0
 11
226.2345823999999936
 21
330.8501448000000664
 31
0.0
  0
LINE
  5
C9
100
AcDbEntity
100
AcDbLine
  8
Layer 1
 62
4
420
65535
370
-1
  6
ByLayer
 10
226.2345823999999936
 20
330.8501448000000664
 30
0.0
 11
226.1952976000000035
 21
338.9650503999999955
 31
0.0
  0
LINE
  5
CA
100
AcDbEntity
100
AcDbLine
  8
Layer 1
 62
4
420
65535
370
-1
  6
ByLayer
 10
226.1952976000000035
 20
338.9650503999999955
 30
0.0
 11
230.1879519999999957
 21
338.9375047999999424
 31
0.0
  0
LINE
  5
CB
100
AcDbEntity
100
AcDbLine
  8
Layer 1
 62
4
420
65535
370
-1
  6
ByLayer
 10
230.1879519999999957
 20
338.9375047999999424
 30
0.0
 11
230.1879519999999957
 21
351.8795384000000013
 31
0.0
  0
LINE
  5
CC
100
AcDbEntity
100
AcDbLine
  8
Layer 1
 62
4
420
65535
370
-1
  6
ByLayer
 10
230.1879519999999957
 20
351.8795384000000013
 30
0.0
 11
230.1879519999999957
 21
351.8795384000000013
 31
0.0
  0
LINE
  5
CD
100
AcDbEntity
100
AcDbLine
  8
Layer 1
 62
4
420
65535
370
-1
  6
ByLayer
 10
364.2466671999999903
 20
309.9232552000000283
 30
0.0
 11
356.1186672000000044
 21
309.9232552000000283
 31
0.0
  0
LINE
  5
CE
100
AcDbEntity
100
AcDbLine
  8
Layer 1
 62
4
420
65535
370
-1
  6
ByLayer
 10
356.1186672000000044
 20
309.9232552000000283
 30
0.0
 11
356.1186672000000044
 21
256.5728679999999713
 31
0.0
  0
LINE
  5
CF
100
AcDbEntity
100
AcDbLine
  8
Layer 1
 62
4
420
65535
370
-1
  6
ByLayer
 10
356.1186672000000044
 20
256.5728679999999713
 30
0.0
 11
352.054667199999983
 21
256.5728679999999713
 31
0.0
  0
LINE
  5
D0
100
AcDbEntity
100
AcDbLine
  8
Layer 1
 62
4
420
65535
370
-1
  6
ByLayer
 10
352.054667199999983
 20
256.5728679999999713
 30
0.0
 11
352.054667199999983
 21
309.9819608000000244
 31
0.0
  0
LINE
  5
D1
100
AcDbEntity
100
AcDbLine
  8
Layer 1
 62
4
420
65535
370
-1
  6
ByLayer
 10
352.054667199999983
 20
309.9819608000000244
 30
0.0
 11
230.1346671999999955
 21
309.9819608000000244
 31
0.0
  0
LINE
  5
D2
100
AcDbEntity
100
AcDbLine
  8
Layer 1
 62
4
420
65535
370
-1
  6
ByLayer
 10
230.1346671999999955
 20
309.9819608000000244
 30
0.0
 11
230.1346671999999955
 21
256.5728679999999713
 31
0.0
  0
LINE
  5
D3
100
AcDbEntity
100
AcDbLine
  8
Layer 1
 62
4
420
65535
370
-1
  6
ByLayer
 10
230.1346671999999955
 20
256.5728679999999713
 30
0.0
 11
226.0706672000000026
 21
256.5728679999999713
 31
0.0
  0
LINE
  5
D4
100
AcDbEntity
100
AcDbLine
  8
Layer 1
 62
4
420
65535
370
-1
  6
ByLayer
 10
226.0706672000000026
 20
256.5728679999999713
 30
0.0
 11
226.0706672000000026
 21
309.9228024000000232
 31
0.0
  0
LINE
  5
D5
100
AcDbEntity
100
AcDbLine
  8
Layer 1
 62
4
420
65535
370
-1
  6
ByLayer
 10
226.0706672000000026
 20
309.9228024000000232
 30
0.0
 11
217.9426671999999883
 21
309.9228024000000232
 31
0.0
  0
LINE
  5
D6
100
AcDbEntity
100
AcDbLine
  8
Layer 1
 62
4
420
65535
370
-1
  6
ByLayer
 10
217.9426671999999883
 20
309.9228024000000232
 30
0.0
 11
217.9426671999999883
 21
203.1949384000000123
 31
0.0
  0
LINE
  5
D7
100
AcDbEntity
100
AcDbLine
  8
Layer 1
 62
4
420
65535
370
-1
  6
ByLayer
 10
217.9426671999999883
 20
203.1949384000000123
 30
0.0
 11
364.2466671999999903
 21
203.1949384000000123
 31
0.0
  0
LINE
  5
D8
100
AcDbEntity
100
AcDbLine
  8
Layer 1
 62
4
420
65535
370
-1
  6
ByLayer
 10
364.2466671999999903
 20
203.1949384000000123
 30
0.0
 11
364.2466671999999903
 21
309.9232552000000283
 31
0.0
  0
LINE
  5
D9
100
AcDbEntity
100
AcDbLine
  8
Layer 1
 62
4
420
65535
370
-1
  6
ByLayer
 10
364.2466671999999903
 20
309.9232552000000283
 30
0.0
 11
364.2466671999999903
 21
309.9232552000000283
 31
0.0
  0
LINE
  5
DA
100
AcDbEntity
100
AcDbLine
  8
Layer 1
 62
4
420
65535
370
-1
  6
ByLayer
 10
232.7288543999999888
 20
298.5160584000000199
 30
0.0
 11
232.8886208000000124
 21
297.7253560000000334
 31
0.0
  0
LINE
  5
DB
100
AcDbEntity
100
AcDbLine
  8
Layer 1
 62
4
420
65535
370
-1
  6
ByLayer
 10
232.8886208000000124
 20
297.7253560000000334
 30
0.0
 11
233.3242304000000331
 21
297.0794344000000251
 31
0.0
  0
LINE
  5
DC
100
AcDbEntity
100
AcDbLine
  8
Layer 1
 62
4
420
65535
370
-1
  6
ByLayer
 10
233.3242304000000331
 20
297.0794344000000251
 30
0.0
 11
233.9701519999999846
 21
296.6438248000000613
 31
0.0
  0
LINE
  5
DD
100
AcDbEntity
100
AcDbLine
  8
Layer 1
 62
4
420
65535
370
-1
  6
ByLayer
 10
233.9701519999999846
 20
296.6438248000000613
 30
0.0
 11
234.7608543999999995
 21
296.4840584000000376
 31
0.0
  0
LINE
  5
DE
100
AcDbEntity
100
AcDbLine
  8
Layer 1
 62
4
420
65535
370
-1
  6
ByLayer
 10
234.7608543999999995
 20
296.4840584000000376
 30
0.0
 11
235.5515568000000144
 21
296.6438248000000613
 31
0.0
  0
LINE
  5
DF
100
AcDbEntity
100
AcDbLine
  8
Layer 1
 62
4
420
65535
370
-1
  6
ByLayer
 10
235.5515568000000144
 20
296.6438248000000613
 30
0.0
 11
236.1974783999999943
 21
297.0794344000000251
 31
0.0
  0
LINE
  5
E0
100
AcDbEntity
100
AcDbLine
  8
Layer 1
 62
4
420
65535
370
-1
  6
ByLayer
 10
236.1974783999999943
 20
297.0794344000000251
 30
0.0
 11
236.6330879999999866
 21
297.7253560000000334
 31
0.0
  0
LINE
  5
E1
100
AcDbEntity
100
AcDbLine
  8
Layer 1
 62
4
420
65535
370
-1
  6
ByLayer
 10
236.6330879999999866
 20
297.7253560000000334
 30
0.0
 11
236.7928544000000102
 21
298.5160584000000199
 31
0.0
  0
LINE
  5
E2
100
AcDbEntity
100
AcDbLine
  8
Layer 1
 62
4
420
65535
370
-1
  6
ByLayer
 10
236.7928544000000102
 20
298.5160584000000199
 30
0.0
 11
236.6330879999999866
 21
299.3067608000000064
 31
0.0
  0
LINE
  5
E3
100
AcDbEntity
100
AcDbLine
  8
Layer 1
 62
4
420
65535
370
-1
  6
ByLayer
 10
236.6330879999999866
 20
299.3067608000000064
 30
0.0
 11
236.1974783999999943
 21
299.9526824000000715
 31
0.0
  0
LINE
  5
E4
100
AcDbEntity
100
AcDbLine
  8
Layer 1
 62
4
420
65535
370
-1
  6
ByLayer
 10
236.1974783999999943
 20
299.9526824000000715
 30
0.0
 11
235.5515568000000144
 21
300.3882920000000354
 31
0.0
  0
LINE
  5
E5
100
AcDbEntity
100
AcDbLine
  8
Layer 1
 62
4
420
65535
370
-1
  6
ByLayer
 10
235.5515568000000144
 20
300.3882920000000354
 30
0.0
 11
234.7608543999999995
 21
300.548058400000059
 31
0.0
  0
LINE
  5
E6
100
AcDbEntity
100
AcDbLine
  8
Layer 1
 62
4
420
65535
370
-1
  6
ByLayer
 10
234.7608543999999995
 20
300.548058400000059
 30
0.0
 11
233.9701519999999846
 21
300.3882920000000354
 31
0.0
  0
LINE
  5
E7
100
AcDbEntity
100
AcDbLine
  8
Layer 1
 62
4
420
65535
370
-1
  6
ByLayer
 10
233.9701519999999846
 20
300.3882920000000354
 30
0.0
 11
233.3242304000000331
 21
299.9526824000000715
 31
0.0
  0
LINE
  5
E8
100
AcDbEntity
100
AcDbLine
  8
Layer 1
 62
4
420
65535
370
-1
  6
ByLayer
 10
233.3242304000000331
 20
299.9526824000000715
 30
0.0
 11
232.8886208000000124
 21
299.3067608000000064
 31
0.0
  0
LINE
  5
E9
100
AcDbEntity
100
AcDbLine
  8
Layer 1
 62
4
420
65535
370
-1
  6
ByLayer
 10
232.8886208000000124
 20
299.3067608000000064
 30
0.0
 11
232.7288543999999888
 21
298.5160584000000199
 31
0.0
  0
LINE
  5
EA
100
AcDbEntity
100
AcDbLine
  8
Layer 1
 62
4
420
65535
370
-1
  6
ByLayer
 10
232.7288543999999888
 20
298.5160584000000199
 30
0.0
 11
232.7288543999999888
 21
298.5160584000000199
 31
0.0
  0
LINE
  5
EB
100
AcDbEntity
100
AcDbLine
  8
Layer 1
 62
4
420
65535
370
-1
  6
ByLayer
 10
232.7288543999999888
 20
215.3160439999999767
 30
0.0
 11
232.8886208000000124
 21
214.5253432000000089
 31
0.0
  0
LINE
  5
EC
100
AcDbEntity
100
AcDbLine
  8
Layer 1
 62
4
420
65535
370
-1
  6
ByLayer
 10
232.8886208000000124
 20
214.5253432000000089
 30
0.0
 11
233.3242304000000331
 21
213.8794216000000006
 31
0.0
  0
LINE
  5
ED
100
AcDbEntity
100
AcDbLine
  8
Layer 1
 62
4
420
65535
370
-1
  6
ByLayer
 10
233.3242304000000331
 20
213.8794216000000006
 30
0.0
 11
233.9701519999999846
 21
213.443810400000018
 31
0.0
  0
LINE
  5
EE
100
AcDbEntity
100
AcDbLine
  8
Layer 1
 62
4
420
65535
370
-1
  6
ByLayer
 10
233.9701519999999846
 20
213.443810400000018
 30
0.0
 11
234.7608543999999995
 21
213.2840440000000228
 31
0.0
  0
LINE
  5
EF
100
AcDbEntity
100
AcDbLine
  8
Layer 1
 62
4
420
65535
370
-1
  6
ByLayer
 10
234.7608543999999995
 20
213.2840440000000228
 30
0.0
 11
235.5515568000000144
 21
213.443810400000018
 31
0.0
  0
LINE
  5
F0
100
AcDbEntity
100
AcDbLine
  8
Layer 1
 62
4
420
65535
370
-1
  6
ByLayer
 10
235.5515568000000144
 20
213.443810400000018
 30
0.0
 11
236.1974783999999943
 21
213.8794216000000006
 31
0.0
  0
LINE
  5
F1
100
AcDbEntity
100
AcDbLine
  8
Layer 1
 62
4
420
65535
370
-1
  6
ByLayer
 10
236.1974783999999943
 20
213.8794216000000006
 30
0.0
 11
236.6330879999999866
 21
214.5253432000000089
 31
0.0
  0
LINE
  5
F2
100
AcDbEntity
100
AcDbLine
  8
Layer 1
 62
4
420
65535
370
-1
  6
ByLayer
 10
236.6330879999999866
 20
214.5253432000000089
 30
0.0
 11
236.7928544000000102
 21
215.3160439999999767
 31
0.0
  0
LINE
  5
F3
100
AcDbEntity
100
AcDbLine
  8
Layer 1
 62
4
420
65535
370
-1
  6
ByLayer
 10
236.7928544000000102
 20
215.3160439999999767
 30
0.0
 11
236.6330879999999866
 21
216.1067463999999916
 31
0.0
  0
LINE
  5
F4
100
AcDbEntity
100
AcDbLine
  8
Layer 1
 62
4
420
65535
370
-1
  6
ByLayer
 10
236.6330879999999866
 20
216.1067463999999916
 30
0.0
 11
236.1974783999999943
 21
216.7526680000000283
 31
0.0
  0
LINE
  5
F5
100
AcDbEntity
100
AcDbLine
  8
Layer 1
 62
4
420
65535
370
-1
  6
ByLayer
 10
236.1974783999999943
 20
216.7526680000000283
 30
0.0
 11
235.5515568000000144
 21
217.1882776000000206
 31
0.0
  0
LINE
  5
F6
100
AcDbEntity
100
AcDbLine
  8
Layer 1
 62
4
420
65535
370
-1
  6
ByLayer
 10
235.5515568000000144
 20
217.1882776000000206
 30
0.0
 11
234.7608543999999995
 21
217.3480440000000158
 31
0.0
  0
LINE
  5
F7
100
AcDbEntity
100
AcDbLine
  8
Layer 1
 62
4
420
65535
370
-1
  6
ByLayer
 10
234.7608543999999995
 20
217.3480440000000158
 30
0.0
 11
233.9701519999999846
 21
217.1882776000000206
 31
0.0
  0
LINE
  5
F8
100
AcDbEntity
100
AcDbLine
  8
Layer 1
 62
4
420
65535
370
-1
  6
ByLayer
 10
233.9701519999999846
 20
217.1882776000000206
 30
0.0
 11
233.3242304000000331
 21
216.7526680000000283
 31
0.0
  0
LINE
  5
F9
100
AcDbEntity
100
AcDbLine
  8
Layer 1
 62
4
420
65535
370
-1
  6
ByLayer
 10
233.3242304000000331
 20
216.7526680000000283
 30
0.0
 11
232.8886208000000124
 21
216.1067463999999916
 31
0.0
  0
LINE
  5
FA
100
AcDbEntity
100
AcDbLine
  8
Layer 1
 62
4
420
65535
370
-1
  6
ByLayer
 10
232.8886208000000124
 20
216.1067463999999916
 30
0.0
 11
232.7288543999999888
 21
215.3160439999999767
 31
0.0
  0
LINE
  5
FB
100
AcDbEntity
100
AcDbLine
  8
Layer 1
 62
4
420
65535
370
-1
  6
ByLayer
 10
232.7288543999999888
 20
215.3160439999999767
 30
0.0
 11
232.7288543999999888
 21
215.3160439999999767
 31
0.0
  0
LINE
  5
FC
100
AcDbEntity
100
AcDbLine
  8
Layer 1
 62
4
420
65535
370
-1
  6
ByLayer
 10
345.3711935999999696
 20
215.3160439999999767
 30
0.0
 11
345.5309599999999932
 21
214.5253432000000089
 31
0.0
  0
LINE
  5
FD
100
AcDbEntity
100
AcDbLine
  8
Layer 1
 62
4
420
65535
370
-1
  6
ByLayer
 10
345.5309599999999932
 20
214.5253432000000089
 30
0.0
 11
345.9665696000000707
 21
213.8794216000000006
 31
0.0
  0
LINE
  5
FE
100
AcDbEntity
100
AcDbLine
  8
Layer 1
 62
4
420
65535
370
-1
  6
ByLayer
 10
345.9665696000000707
 20
213.8794216000000006
 30
0.0
 11
346.6124911999999654
 21
213.443810400000018
 31
0.0
  0
LINE
  5
FF
100
AcDbEntity
100
AcDbLine
  8
Layer 1
 62
4
420
65535
370
-1
  6
ByLayer
 10
346.6124911999999654
 20
213.443810400000018
 30
0.0
 11
347.4031936000000087
 21
213.2840440000000228
 31
0.0
  0
LINE
  5
100
100
AcDbEntity
100
AcDbLine
  8
Layer 1
 62
4
420
65535
370
-1
  6
ByLayer
 10
347.4031936000000087
 20
213.2840440000000228
 30
0.0
 11
348.1938959999999952
 21
213.443810400000018
 31
0.0
  0
LINE
  5
101
100
AcDbEntity
100
AcDbLine
  8
Layer 1
 62
4
420
65535
370
-1
  6
ByLayer
 10
348.1938959999999952
 20
213.443810400000018
 30
0.0
 11
348.8398176000000035
 21
213.8794216000000006
 31
0.0
  0
LINE
  5
102
100
AcDbEntity
100
AcDbLine
  8
Layer 1
 62
4
420
65535
370
-1
  6
ByLayer
 10
348.8398176000000035
 20
213.8794216000000006
 30
0.0
 11
349.275427200000081
 21
214.5253432000000089
 31
0.0
  0
LINE
  5
103
100
AcDbEntity
100
AcDbLine
  8
Layer 1
 62
4
420
65535
370
-1
  6
ByLayer
 10
349.275427200000081
 20
214.5253432000000089
 30
0.0
 11
349.4351936000000478
 21
215.3160439999999767
 31
0.0
  0
LINE
  5
104
100
AcDbEntity
100
AcDbLine
  8
Layer 1
 62
4
420
65535
370
-1
  6
ByLayer
 10
349.4351936000000478
 20
215.3160439999999767
 30
0.0
 11
349.275427200000081
 21
216.1067463999999916
 31
0.0
  0
LINE
  5
105
100
AcDbEntity
100
AcDbLine
  8
Layer 1
 62
4
420
65535
370
-1
  6
ByLayer
 10
349.275427200000081
 20
216.1067463999999916
 30
0.0
 11
348.8398176000000035
 21
216.7526680000000283
 31
0.0
  0
LINE
  5
106
100
AcDbEntity
100
AcDbLine
  8
Layer 1
 62
4
420
65535
370
-1
  6
ByLayer
 10
348.8398176000000035
 20
216.7526680000000283
 30
0.0
 11
348.1938959999999952
 21
217.1882776000000206
 31
0.0
  0
LINE
  5
107
100
AcDbEntity
100
AcDbLine
  8
Layer 1
 62
4
420
65535
370
-1
  6
ByLayer
 10
348.1938959999999952
 20
217.1882776000000206
 30
0.0
 11
347.4031936000000087
 21
217.3480440000000158
 31
0.0
  0
LINE
  5
108
100
AcDbEntity
100
AcDbLine
  8
Layer 1
 62
4
420
65535
370
-1
  6
ByLayer
 10
347.4031936000000087
 20
217.3480440000000158
 30
0.0
 11
346.6124911999999654
 21
217.1882776000000206
 31
0.0
  0
LINE
  5
109
100
AcDbEntity
100
AcDbLine
  8
Layer 1
 62
4
420
65535
370
-1
  6
ByLayer
 10
346.6124911999999654
 20
217.1882776000000206
 30
0.0
 11
345.9665696000000707
 21
216.7526680000000283
 31
0.0
  0
LINE
  5
10A
100
AcDbEntity
100
AcDbLine
  8
Layer 1
 62
4
420
65535
370
-1
  6
ByLayer
 10
345.9665696000000707
 20
216.7526680000000283
 30
0.0
 11
345.5309599999999932
 21
216.1067463999999916
 31
0.0
  0
LINE
  5
10B
100
AcDbEntity
100
AcDbLine
  8
Layer 1
 62
4
420
65535
370
-1
  6
ByLayer
 10
345.5309599999999932
 20
216.1067463999999916
 30
0.0
 11
345.3711935999999696
 21
215.3160439999999767
 31
0.0
  0
LINE
  5
10C
100
AcDbEntity
100
AcDbLine
  8
Layer 1
 62
4
420
65535
370
-1
  6
ByLayer
 10
345.3711935999999696
 20
215.3160439999999767
 30
0.0
 11
345.3711935999999696
 21
215.3160439999999767
 31
0.0
  0
LINE
  5
10D
100
AcDbEntity
100
AcDbLine
  8
Layer 1
 62
4
420
65535
370
-1
  6
ByLayer
 10
295.1586672000000249
 20
306.7971352000000707
 30
0.0
 11
287.030667200000039
 21
306.7971352000000707
 31
0.0
  0
LINE
  5
10E
100
AcDbEntity
100
AcDbLine
  8
Layer 1
 62
4
420
65535
370
-1
  6
ByLayer
 10
287.030667200000039
 20
306.7971352000000707
 30
0.0
 11
287.030667200000039
 21
302.8956952000000342
 31
0.0
  0
LINE
  5
10F
100
AcDbEntity
100
AcDbLine
  8
Layer 1
 62
4
420
65535
370
-1
  6
ByLayer
 10
287.030667200000039
 20
302.8956952000000342
 30
0.0
 11
295.1586672000000249
 21
302.8956952000000342
 31
0.0
  0
LINE
  5
110
100
AcDbEntity
100
AcDbLine
  8
Layer 1
 62
4
420
65535
370
-1
  6
ByLayer
 10
295.1586672000000249
 20
302.8956952000000342
 30
0.0
 11
295.1586672000000249
 21
306.7971352000000707
 31
0.0
  0
LINE
  5
111
100
AcDbEntity
100
AcDbLine
  8
Layer 1
 62
4
420
65535
370
-1
  6
ByLayer
 10
295.1586672000000249
 20
306.7971352000000707
 30
0.0
 11
295.1586672000000249
 21
306.7971352000000707
 31
0.0
  0
LINE
  5
112
100
AcDbEntity
100
AcDbLine
  8
Layer 1
 62
4
420
65535
370
-1
  6
ByLayer
 10
180.8437663999999927
 20
196.2757560000000296
 30
0.0
 11
188.971766400000007
 21
196.2757560000000296
 31
0.0
  0
LINE
  5
113
100
AcDbEntity
100
AcDbLine
  8
Layer 1
 62
4
420
65535
370
-1
  6
ByLayer
 10
188.971766400000007
 20
196.2757560000000296
 30
0.0
 11
188.971766400000007
 21
192.3743160000000216
 31
0.0
  0
LINE
  5
114
100
AcDbEntity
100
AcDbLine
  8
Layer 1
 62
4
420
65535
370
-1
  6
ByLayer
 10
188.971766400000007
 20
192.3743160000000216
 30
0.0
 11
180.8437663999999927
 21
192.3743160000000216
 31
0.0
  0
LINE
  5
115
100
AcDbEntity
100
AcDbLine
  8
Layer 1
 62
4
420
65535
370
-1
  6
ByLayer
 10
180.8437663999999927
 20
192.3743160000000216
 30
0.0
 11
180.8437663999999927
 21
196.2757560000000296
 31
0.0
  0
LINE
  5
116
100
AcDbEntity
100
AcDbLine
  8
Layer 1
 62
4
420
65535
370
-1
  6
ByLayer
 10
180.8437663999999927
 20
196.2757560000000296
 30
0.0
 11
180.8437663999999927
 21
196.2757560000000296
 31
0.0
  0
LINE
  5
117
100
AcDbEntity
100
AcDbLine
  8
Layer 1
 62
4
420
65535
370
-1
  6
ByLayer
 10
393.0486879999999701
 20
196.2757560000000296
 30
0.0
 11
401.1766880000000128
 21
196.2757560000000296
 31
0.0
  0
LINE
  5
118
100
AcDbEntity
100
AcDbLine
  8
Layer 1
 62
4
420
65535
370
-1
  6
ByLayer
 10
401.1766880000000128
 20
196.2757560000000296
 30
0.0
 11
401.1766880000000128
 21
192.3743160000000216
 31
0.0
  0
LINE
  5
119
100
AcDbEntity
100
AcDbLine
  8
Layer 1
 62
4
420
65535
370
-1
  6
ByLayer
 10
401.1766880000000128
 20
192.3743160000000216
 30
0.0
 11
393.0486879999999701
 21
192.3743160000000216
 31
0.0
  0
LINE
  5
11A
100
AcDbEntity
100
AcDbLine
  8
Layer 1
 62
4
420
65535
370
-1
  6
ByLayer
 10
393.0486879999999701
 20
192.3743160000000216
 30
0.0
 11
393.0486879999999701
 21
196.2757560000000296
 31
0.0
  0
LINE
  5
11B
100
AcDbEntity
100
AcDbLine
  8
Layer 1
 62
4
420
65535
370
-1
  6
ByLayer
 10
393.0486879999999701
 20
196.2757560000000296
 30
0.0
 11
393.0486879999999701
 21
196.2757560000000296
 31
0.0
  0
LINE
  5
11C
100
AcDbEntity
100
AcDbLine
  8
Layer 1
 62
4
420
65535
370
-1
  6
ByLayer
 10
180.8437663999999927
 20
100.0474615999999912
 30
0.0
 11
188.971766400000007
 21
100.0474615999999912
 31
0.0
  0
LINE
  5
11D
100
AcDbEntity
100
AcDbLine
  8
Layer 1
 62
4
420
65535
370
-1
  6
ByLayer
 10
188.971766400000007
 20
100.0474615999999912
 30
0.0
 11
188.971766400000007
 21
96.1460215999999832
 31
0.0
  0
LINE
  5
11E
100
AcDbEntity
100
AcDbLine
  8
Layer 1
 62
4
420
65535
370
-1
  6
ByLayer
 10
188.971766400000007
 20
96.1460215999999832
 30
0.0
 11
180.8437663999999927
 21
96.1460215999999832
 31
0.0
  0
LINE
  5
11F
100
AcDbEntity
100
AcDbLine
  8
Layer 1
 62
4
420
65535
370
-1
  6
ByLayer
 10
180.8437663999999927
 20
96.1460215999999832
 30
0.0
 11
180.8437663999999927
 21
100.0474615999999912
 31
0.0
  0
LINE
  5
120
100
AcDbEntity
100
AcDbLine
  8
Layer 1
 62
4
420
65535
370
-1
  6
ByLayer
 10
180.8437663999999927
 20
100.0474615999999912
 30
0.0
 11
180.8437663999999927
 21
100.0474615999999912
 31
0.0
  0
LINE
  5
121
100
AcDbEntity
100
AcDbLine
  8
Layer 1
 62
4
420
65535
370
-1
  6
ByLayer
 10
393.0306256000000076
 20
100.0474615999999912
 30
0.0
 11
401.1586256000000503
 21
100.0474615999999912
 31
0.0
  0
LINE
  5
122
100
AcDbEntity
100
AcDbLine
  8
Layer 1
 62
4
420
65535
370
-1
  6
ByLayer
 10
401.1586256000000503
 20
100.0474615999999912
 30
0.0
 11
401.1586256000000503
 21
96.1460215999999832
 31
0.0
  0
LINE
  5
123
100
AcDbEntity
100
AcDbLine
  8
Layer 1
 62
4
420
65535
370
-1
  6
ByLayer
 10
401.1586256000000503
 20
96.1460215999999832
 30
0.0
 11
393.0306256000000076
 21
96.1460215999999832
 31
0.0
  0
LINE
  5
124
100
AcDbEntity
100
AcDbLine
  8
Layer 1
 62
4
420
65535
370
-1
  6
ByLayer
 10
393.0306256000000076
 20
96.1460215999999832
 30
0.0
 11
393.0306256000000076
 21
100.0474615999999912
 31
0.0
  0
LINE
  5
125
100
AcDbEntity
100
AcDbLine
  8
Layer 1
 62
4
420
65535
370
-1
  6
ByLayer
 10
393.0306256000000076
 20
100.0474615999999912
 30
0.0
 11
393.0306256000000076
 21
100.0474615999999912
 31
0.0
  0
LINE
  5
126
100
AcDbEntity
100
AcDbLine
  8
Layer 1
 62
4
420
65535
370
-1
  6
ByLayer
 10
230.1879519999999957
 20
389.2683383999999478
 30
0.0
 11
352.0636991999999736
 21
389.2683383999999478
 31
0.0
  0
LINE
  5
127
100
AcDbEntity
100
AcDbLine
  8
Layer 1
 62
4
420
65535
370
-1
  6
ByLayer
 10
352.0636991999999736
 20
389.2683383999999478
 30
0.0
 11
352.0636991999999736
 21
376.3280983999999307
 31
0.0
  0
LINE
  5
128
100
AcDbEntity
100
AcDbLine
  8
Layer 1
 62
4
420
65535
370
-1
  6
ByLayer
 10
352.0636991999999736
 20
376.3280983999999307
 30
0.0
 11
356.1137008000000037
 21
376.3231400000000804
 31
0.0
  0
LINE
  5
129
100
AcDbEntity
100
AcDbLine
  8
Layer 1
 62
4
420
65535
370
-1
  6
ByLayer
 10
356.1137008000000037
 20
376.3231400000000804
 30
0.0
 11
356.1046688000000131
 21
368.1472792000000709
 31
0.0
  0
LINE
  5
12A
100
AcDbEntity
100
AcDbLine
  8
Layer 1
 62
4
420
65535
370
-1
  6
ByLayer
 10
356.1046688000000131
 20
368.1472792000000709
 30
0.0
 11
352.0786000000000513
 21
368.1359911999999781
 31
0.0
  0
LINE
  5
12B
100
AcDbEntity
100
AcDbLine
  8
Layer 1
 62
4
420
65535
370
-1
  6
ByLayer
 10
352.0786000000000513
 20
368.1359911999999781
 30
0.0
 11
352.0636991999999736
 21
355.1447368000000324
 31
0.0
  0
LINE
  5
12C
100
AcDbEntity
100
AcDbLine
  8
Layer 1
 62
4
420
65535
370
-1
  6
ByLayer
 10
352.0636991999999736
 20
355.1447368000000324
 30
0.0
 11
230.1879519999999957
 21
355.2309847999999874
 31
0.0
  0
LINE
  5
12D
100
AcDbEntity
100
AcDbLine
  8
Layer 1
 62
4
420
65535
370
-1
  6
ByLayer
 10
230.1879519999999957
 20
355.2309847999999874
 30
0.0
 11
230.1879519999999957
 21
368.2389448000000129
 31
0.0
  0
LINE
  5
12E
100
AcDbEntity
100
AcDbLine
  8
Layer 1
 62
4
420
65535
370
-1
  6
ByLayer
 10
230.1879519999999957
 20
368.2389448000000129
 30
0.0
 11
226.2345823999999936
 21
368.2389448000000129
 31
0.0
  0
LINE
  5
12F
100
AcDbEntity
100
AcDbLine
  8
Layer 1
 62
4
420
65535
370
-1
  6
ByLayer
 10
226.2345823999999936
 20
368.2389448000000129
 30
0.0
 11
226.1952976000000035
 21
376.3538408000000572
 31
0.0
  0
LINE
  5
130
100
AcDbEntity
100
AcDbLine
  8
Layer 1
 62
4
420
65535
370
-1
  6
ByLayer
 10
226.1952976000000035
 20
376.3538408000000572
 30
0.0
 11
230.1879519999999957
 21
376.3263096000000587
 31
0.0
  0
LINE
  5
131
100
AcDbEntity
100
AcDbLine
  8
Layer 1
 62
4
420
65535
370
-1
  6
ByLayer
 10
230.1879519999999957
 20
376.3263096000000587
 30
0.0
 11
230.1879519999999957
 21
389.2683383999999478
 31
0.0
  0
LINE
  5
132
100
AcDbEntity
100
AcDbLine
  8
Layer 1
 62
4
420
65535
370
-1
  6
ByLayer
 10
230.1879519999999957
 20
389.2683383999999478
 30
0.0
 11
230.1879519999999957
 21
389.2683383999999478
 31
0.0
  0
ENDSEC
  0
SECTION
  2
OBJECTS
  0
DICTIONARY
  5
C
100
AcDbDictionary
280
0
281
1
  3
ACAD_GROUP
350
D
  3
ACAD_LAYOUT
350
1A
  3
ACAD_MLINESTYLE
350
17
  3
ACAD_PLOTSETTINGS
350
19
  3
ACAD_PLOTSTYLENAME
350
E
  3
AcDbVariableDictionary
350
133
  0
DICTIONARY
  5
D
100
AcDbDictionary
280
0
281
1
  0
ACDBDICTIONARYWDFLT
  5
E
100
AcDbDictionary
281
1
  3
Normal
350
F
100
AcDbDictionaryWithDefault
340
F
  0
ACDBPLACEHOLDER
  5
F
  0
DICTIONARY
  5
17
100
AcDbDictionary
280
0
281
1
  3
Standard
350
18
  0
MLINESTYLE
  5
18
100
AcDbMlineStyle
  2
STANDARD
 70
0
  3

 62
256
 51
90.0
 52
90.0
 71
2
 49
0.5
 62
256
  6
BYLAYER
 49
-0.5
 62
256
  6
BYLAYER
  0
DICTIONARY
  5
19
100
AcDbDictionary
280
0
281
1
  0
DICTIONARY
  5
1A
100
AcDbDictionary
281
1
  3
Layout1
350
1E
  3
Layout2
350
26
  3
Model
350
22
  0
LAYOUT
  5
1E
100
AcDbPlotSettings
  1

  2
C:\Program Files\AutoCAD 2002\plotters\DWF ePlot (optimized for plotting).pc3
  4

  6

 40
0.0
 41
0.0
 42
0.0
 43
0.0
 44
0.0
 45
0.0
 46
0.0
 47
0.0
 48
0.0
 49
0.0
140
0.0
141
0.0
142
1.0
143
1.0
 70
688
 72
0
 73
0
 74
5
  7

 75
16
147
1.0
148
0.0
149
0.0
100
AcDbLayout
  1
Layout1
 70
1
 71
1
 10
0.0
 20
0.0
 11
420.0
 21
297.0
 12
0.0
 22
0.0
 32
0.0
 14
100000000000000000000.0
 24
100000000000000000000.0
 34
100000000000000000000.0
 15
-100000000000000000000.0
 25
-100000000000000000000.0
 35
-100000000000000000000.0
146
0.0
 13
0.0
 23
0.0
 33
0.0
 16
1.0
 26
0.0
 36
0.0
 17
0.0
 27
1.0
 37
0.0
 76
0
330
1B
  0
LAYOUT
  5
22
100
AcDbPlotSettings
  1

  2
C:\Program Files\AutoCAD 2002\plotters\DWF ePlot (optimized for plotting).pc3
  4

  6

 40
0.0
 41
0.0
 42
0.0
 43
0.0
 44
0.0
 45
0.0
 46
0.0
 47
0.0
 48
0.0
 49
0.0
140
0.0
141
0.0
142
1.0
143
1.0
 70
1712
 72
0
 73
0
 74
0
  7

 75
0
147
1.0
148
0.0
149
0.0
100
AcDbLayout
  1
Model
 70
1
 71
0
 10
0.0
 20
0.0
 11
12.0
 21
9.0
 12
0.0
 22
0.0
 32
0.0
 14
0.0
 24
0.0
 34
0.0
 15
0.0
 25
0.0
 35
0.0
146
0.0
 13
0.0
 23
0.0
 33
0.0
 16
1.0
 26
0.0
 36
0.0
 17
0.0
 27
1.0
 37
0.0
 76
0
330
1F
  0
LAYOUT
  5
26
100
AcDbPlotSettings
  1

  2
C:\Program Files\AutoCAD 2002\plotters\DWF ePlot (optimized for plotting).pc3
  4

  6

 40
0.0
 41
0.0
 42
0.0
 43
0.0
 44
0.0
 45
0.0
 46
0.0
 47
0.0
 48
0.0
 49
0.0
140
0.0
141
0.0
142
1.0
143
1.0
 70
688
 72
0
 73
0
 74
5
  7

 75
16
147
1.0
148
0.0
149
0.0
100
AcDbLayout
  1
Layout2
 70
1
 71
2
 10
0.0
 20
0.0
 11
12.0
 21
9.0
 12
0.0
 22
0.0
 32
0.0
 14
0.0
 24
0.0
 34
0.0
 15
0.0
 25
0.0
 35
0.0
146
0.0
 13
0.0
 23
0.0
 33
0.0
 16
1.0
 26
0.0
 36
0.0
 17
0.0
 27
1.0
 37
0.0
 76
0
330
23
  0
DICTIONARY
  5
133
100
AcDbDictionary
281
1
  3
DIMASSOC
350
135
  3
HIDETEXT
350
134
  0
DICTIONARYVAR
  5
134
100
DictionaryVariables
280
0
  1
2
  0
DICTIONARYVAR
  5
135
100
DictionaryVariables
280
0
  1
1
  0
ENDSEC
  0
EOF
